<svg width="128" height="128" viewBox="0 0 128 128" fill="none" xmlns="http://www.w3.org/2000/svg">
<g clip-path="url(#clipp)">
<circle cx="64" cy="64" r="64" fill="url(#gradient)"/>
<path d="M23.6101 21.7278C23.6101 21.7278 26.4061 20.5526 29.4365 19.3946C32.7127 18.2821 36.2405 17.2268 36.2405 17.2268C37.4412 16.9016 38.6591 16.5878 39.9113 16.2798C41.2664 15.9717 42.2555 15.9204 42.8902 16.1143C43.3876 16.2512 43.6793 16.565 43.7822 17.0385C43.8851 17.4835 44.0052 17.9284 44.1195 18.3848C44.3997 19.212 44.6341 20.1134 44.8171 21.106C45.1373 22.0416 45.4575 23.0684 45.7891 24.1637C46.4809 26.3259 47.1956 28.7047 47.9332 31.3061C48.7394 34.13 49.5799 37.2162 50.449 40.5764C51.461 44.1875 52.616 48.0439 53.9254 52.1342C55.3262 56.447 56.8814 60.9252 58.5796 65.4605C59.7231 68.2787 60.7466 71.0911 61.6042 73.8865C62.4219 76.6019 63.3824 79.1348 64.4345 81.5023C64.6918 82.0899 64.9319 82.6547 65.1835 83.2252C65.4351 83.7785 65.8925 84.2178 66.5214 84.5316C66.7787 84.6399 67.0303 84.7369 67.2819 84.8453C67.5392 84.9423 67.7965 84.891 68.0595 84.6628C69.0773 84.4003 69.8263 83.7044 70.2608 82.552C70.7011 81.3825 71.1528 80.31 71.5816 79.3402C72.7709 76.4707 73.8115 73.5727 74.7092 70.6462C75.7212 67.5314 76.739 64.388 77.7453 61.2504C78.9231 57.1658 79.9866 53.2124 80.9358 49.4359C81.7877 45.8647 82.5539 42.5046 83.2343 39.3669C83.8289 36.3776 84.3607 33.6051 84.8295 31.0323C85.2412 28.6477 85.6071 26.44 85.9273 24.3919C86.0702 23.3879 86.2018 22.458 86.3504 21.6023C86.4533 20.7067 86.5562 19.8567 86.6592 19.0295C86.7392 18.6415 86.8193 18.2536 86.905 17.8828C86.9851 17.5177 87.2824 17.2838 87.8027 17.1868C88.1629 17.0442 88.6775 17.0727 89.3465 17.261C90.0841 17.4664 90.8102 17.6831 91.5249 17.8942L97.9573 20.1134L103.767 22.5892C104.224 22.806 104.676 23.0228 105.116 23.2396C105.602 23.4792 106.008 23.753 106.334 24.0839C106.986 24.6658 107.512 25.4188 107.912 26.3544C108.289 27.2671 108.672 28.2255 109.061 29.2353C109.061 29.2353 109.381 30.091 109.85 31.4088C110.313 32.7608 110.908 34.6263 111.48 36.5602C112.023 38.5626 112.532 40.622 112.892 42.2079C113.229 43.8338 113.441 44.9348 113.441 44.9348C113.441 44.9348 113.915 47.713 114.476 52.0201C114.687 54.2221 114.876 56.8178 114.99 59.6189C115.025 62.437 114.967 65.4434 114.819 68.4327C114.579 71.3821 114.253 74.2915 113.87 76.9556C113.418 79.5627 112.943 81.9245 112.503 83.8983C111.52 87.6806 110.811 90.0766 110.811 90.0766C110.811 90.0766 110.113 92.2216 109.393 94.2696C108.649 96.232 107.889 98.0975 107.889 98.0975C107.632 98.7022 107.346 99.3126 107.037 99.9344C106.803 100.454 106.488 100.921 106.088 101.315C105.688 101.714 105.259 102.045 104.807 102.308C104.373 102.524 103.875 102.764 103.321 103.026L99.4096 104.749L97.0082 105.702C96.5565 105.793 96.1563 105.879 95.8018 105.97C95.4987 106.033 95.2986 105.959 95.1728 105.748C95.0242 105.582 95.047 105.291 95.23 104.869C95.413 104.441 95.6074 103.979 95.8189 103.477L97.6086 98.8676C97.6086 98.8676 98.1689 97.2646 98.998 94.726C99.4039 93.3968 99.8728 91.7823 100.359 89.9967C100.833 88.137 101.314 86.0775 101.771 83.9497C102.194 81.7476 102.577 79.4771 102.909 77.2922C103.195 75.0559 103.423 72.9338 103.595 71.0854C103.835 67.326 103.927 64.7931 103.927 64.7931C103.881 63.3098 103.858 61.9407 103.847 60.6685C103.818 59.2937 103.772 57.9131 103.715 56.5554C103.664 55.7168 103.612 54.8896 103.555 54.0624C103.544 53.1268 103.435 52.2597 103.218 51.4211C103.023 50.6909 102.863 49.9093 102.772 49.1164C102.674 48.312 102.406 47.7701 101.965 47.4905C101.742 47.3536 101.577 47.3764 101.462 47.5533C101.417 47.7415 101.365 47.8727 101.302 47.9583C101.068 48.312 100.879 48.7855 100.742 49.3731C100.65 49.8637 100.559 50.3543 100.467 50.8677C100.164 52.4023 99.8442 54.0225 99.4954 55.7396C99.1981 57.4796 98.8321 59.2652 98.3862 61.0679C98.2261 61.7353 98.066 62.4256 97.9002 63.1102C97.8201 63.8004 97.6429 64.4964 97.3741 65.1924C96.9224 66.6985 96.4765 68.2102 96.0533 69.7334C95.6188 71.2395 95.1099 72.7512 94.5496 74.2573C94.338 74.6224 94.2065 75.0217 94.1608 75.4724C94.1208 75.7976 94.0007 76.1456 93.7891 76.4935C93.3146 77.5432 92.8743 78.6214 92.4512 79.7281C92.1196 80.8178 91.6507 81.9245 91.0332 83.0369C90.5129 84.0181 90.0269 85.0279 89.5695 86.0718C89.2035 87.0816 88.7518 88.0913 88.1915 89.0897C86.5219 91.9306 84.9896 94.6347 83.583 97.1904C82.228 99.5123 80.7985 101.697 79.3176 103.757C79.0832 103.979 78.9517 104.173 78.9117 104.356C78.866 104.544 78.723 104.738 78.4943 104.955C77.8768 105.673 77.3508 106.392 76.9219 107.105C76.5045 107.739 76.0014 108.372 75.4239 108.999C75.0808 109.387 74.7321 109.747 74.4004 110.072C74.1603 110.374 73.8001 110.648 73.3084 110.888C72.8338 111.121 72.3592 111.275 71.9075 111.367C71.4673 111.407 70.9241 111.498 70.2837 111.635L67.1733 111.829C66.5329 111.857 65.7667 111.903 64.8519 111.977C64.0342 111.989 63.1709 112 62.256 112C61.4441 111.989 60.6608 111.954 59.9289 111.886C59.2085 111.823 58.6539 111.709 58.2765 111.555C57.5275 111.293 56.9958 111.013 56.6927 110.711C56.3668 110.363 55.9952 109.946 55.5606 109.467C55.0174 108.822 54.4914 108.155 54.0111 107.47C53.6223 106.717 53.1192 105.953 52.5074 105.194L51.9413 104.321C51.3067 103.506 50.7235 102.633 50.1746 101.709C49.5971 100.676 48.9681 99.6834 48.3049 98.7193C48.1562 98.4854 48.0247 98.28 47.8989 98.1089C47.8646 97.8864 47.7674 97.6354 47.613 97.3901C46.9726 96.6142 46.4237 95.7871 45.972 94.9085C45.5032 94.0129 44.9886 93.0887 44.4168 92.136C44.2853 91.9421 44.1367 91.7024 43.9937 91.4115C43.948 91.1434 43.8508 90.8981 43.7078 90.6984C43.1475 89.6944 42.6158 88.6903 42.1526 87.6635C41.7867 86.6366 41.2721 85.5641 40.5917 84.446C39.4767 82.2154 38.419 79.8137 37.4127 77.2295C36.4635 74.611 35.5144 71.9925 34.571 69.4139C33.5761 66.3448 32.707 63.23 31.9923 60.0924C31.3519 57.0289 30.6601 54.1708 29.8996 51.5238C29.6252 50.0291 29.2935 48.8369 28.9047 47.9298C28.7675 47.7415 28.6188 47.6103 28.4702 47.5362C28.333 47.3479 28.1386 47.3821 27.8641 47.6331C27.4296 48.004 27.1665 48.5744 27.0865 49.3103C27.0064 50.052 26.8578 50.8221 26.6291 51.598C26.4061 52.3681 26.2574 53.2067 26.1945 54.0681C26.2231 54.8383 26.2174 55.6655 26.1717 56.5497C26.1145 57.7705 26.0745 58.997 26.0516 60.2293C26.0344 61.4729 25.9944 62.7051 25.9201 63.9317C25.9201 63.9317 26.0001 66.7213 26.2346 70.8515C26.4004 72.8824 26.6405 75.2157 26.9378 77.6573C27.2809 80.0362 27.6869 82.495 28.1271 84.8681C28.6017 87.15 29.0991 89.3464 29.5794 91.3145C30.0769 93.2028 30.5514 94.8914 30.9688 96.2834C31.7979 98.919 32.3525 100.568 32.3525 100.568L33.982 104.955C34.1536 105.394 34.3251 105.816 34.5023 106.238C34.6739 106.655 34.6682 106.951 34.4852 107.111C34.3651 107.379 33.9249 107.442 33.2101 107.299C32.7813 107.248 32.301 107.134 31.7636 106.951C31.209 106.717 30.6772 106.512 30.1683 106.329L25.4684 104.504C24.8452 104.242 24.302 104.002 23.8103 103.785C23.3071 103.523 22.8382 103.186 22.4037 102.787C21.9749 102.393 21.6147 101.908 21.3288 101.366C21.0086 100.744 20.7284 100.134 20.4654 99.518C20.4654 99.518 19.6764 97.6069 18.9045 95.5931C18.1497 93.4766 17.4122 91.2461 17.4122 91.2461C17.4122 91.2461 16.6746 88.7816 15.6454 84.8624C15.1765 82.8144 14.6734 80.3443 14.1988 77.6174C13.7871 74.8163 13.4384 71.7586 13.1868 68.6438C13.0267 65.4891 12.9695 62.3172 13.0152 59.3393C13.1468 56.3786 13.3469 53.6403 13.5756 51.3241C14.1931 46.8117 14.702 43.9022 14.702 43.9022C14.702 43.9022 15.5996 39.7206 16.6288 35.7729C17.7552 32.0934 18.9445 28.6819 18.9445 28.6819C19.0874 28.3111 19.2533 27.8718 19.4362 27.3926C19.6535 26.8507 19.8536 26.3487 20.0423 25.8809C20.231 25.4188 20.4311 24.9852 20.6541 24.5688C20.8942 24.101 21.1115 23.7359 21.3116 23.4678C21.6833 23 22.2265 22.5379 22.9297 22.0929C23.067 21.9845 23.1699 21.9389 23.2556 21.9446C23.3643 21.899 23.4843 21.8191 23.6101 21.7278Z" fill="#111111"/>
</g>
<style>
        path { fill: #fff; }
        @media (prefers-color-scheme: dark) {
            path { fill: #000; }
        }
    </style>
<defs>
<linearGradient id="gradient" x1="64" y1="0" x2="64" y2="128" gradientUnits="userSpaceOnUse">
<stop stop-color="#EF8D45"/>
<stop offset="0.48" stop-color="#B3727E"/>
<stop offset="1" stop-color="#62426B"/>
</linearGradient>
<clipPath id="clipp">
<rect width="128" height="128"/>
</clipPath>
</defs>
</svg>